<svg xmlns="http://www.w3.org/2000/svg" viewBox="0 0 64 64" fill="none">
  <defs>
    <linearGradient id="bg" x1="10" y1="8" x2="54" y2="56" gradientUnits="userSpaceOnUse">
      <stop offset="0" stop-color="#0f1b33" />
      <stop offset="1" stop-color="#08101e" />
    </linearGradient>
    <linearGradient id="accent" x1="18" y1="16" x2="47" y2="45" gradientUnits="userSpaceOnUse">
      <stop offset="0" stop-color="#7dd3fc" />
      <stop offset="1" stop-color="#34d399" />
    </linearGradient>
  </defs>

  <rect x="6" y="6" width="52" height="52" rx="16" fill="url(#bg)" />
  <rect x="6.75" y="6.75" width="50.5" height="50.5" rx="15.25" stroke="rgba(148,163,184,0.22)" />

  <path d="M20 18.5C20 17.12 21.12 16 22.5 16H41.5C42.88 16 44 17.12 44 18.5V22H20V18.5Z" fill="#1e293b" />
  <path d="M20 22H44V39.5C44 40.88 42.88 42 41.5 42H22.5C21.12 42 20 40.88 20 39.5V22Z" fill="#0f172a" />

  <path d="M24 28.5H40" stroke="#334155" stroke-width="2.5" stroke-linecap="round" />
  <path d="M24 33.5H34" stroke="#334155" stroke-width="2.5" stroke-linecap="round" />
  <path d="M24 12.5V20" stroke="#7dd3fc" stroke-width="3" stroke-linecap="round" />
  <path d="M40 12.5V20" stroke="#7dd3fc" stroke-width="3" stroke-linecap="round" />

  <circle cx="42" cy="42" r="10" fill="url(#accent)" />
  <path d="M37.5 42.25L40.5 45.25L46.75 39" stroke="#04111d" stroke-width="3" stroke-linecap="round" stroke-linejoin="round" />
</svg>